# xmcd CD database file
# Copyright (C) 1993-1998 Ti Kan
#
# Track frame offsets:
#	150
#	15793
#	31260
#	45658
#	69588
#	85195
#	106900
#	120500
#	138003
#	152785
#	171763
#	187215
#	201708
#	220203
#
# Disc length: 3227 seconds
#
# Revision: 0
# Processed by: cddbd v1.4b41PL1 Copyright (c) Steve Scherf et al.
# Submitted via: CDmax 1.5
#
DISCID=bb0c990e
DTITLE=George and Lucky Riders - BOTH SIDES OF THE BORDER
DYEAR=1900
DGENRE=
TTITLE0=GUACAMOLE
TTITLE1=LAREDO ROSE
TTITLE2=HEY BABY QUE PASO
TTITLE3=HE'LL HAVE TO GO
TTITLE4=SHE NEVER SPOKE SPANISH TO ME
TTITLE5=PONCHO AND LEFTY
TTITLE6=IS ANYBODY GOIN' TO SAN ANTON'
TTITLE7=GOD BLESSED TEXAS
TTITLE8=QUEEN OF MEMPHIS
TTITLE9=DIFFERENT LIGHT
TTITLE10=ACHY BREAKY HEART
TTITLE11=MY RIFLE MY PONY AND ME
TTITLE12=PROP ME UP
TTITLE13=DIXIE LAND - BATTLE OF NEW ORLEAN'S
EXTD=
EXTT0=
EXTT1=
EXTT2=
EXTT3=
EXTT4=
EXTT5=
EXTT6=
EXTT7=
EXTT8=
EXTT9=
EXTT10=
EXTT11=
EXTT12=
EXTT13=
PLAYORDER=
